<svg xmlns="http://www.w3.org/2000/svg" width="24" height="24" viewBox="0 0 6.35 6.35"><g transform="translate(-68.792 -67.734)"><path fill="#5ad0ff" d="m 70.115101,69.056768 c -0.435242,0 -0.794785,0.357473 -0.794782,0.792718 v 2.117182 c -3e-6,0.435245 0.35954,0.793235 0.794782,0.793235 h 2.115116 c 0.435245,0 0.795303,-0.35799 0.795301,-0.793235 v -2.117182 c 2e-6,-0.435245 -0.360056,-0.792718 -0.795301,-0.792718 z" color="#000" font-family="sans-serif" font-weight="400" overflow="visible" paint-order="markers fill stroke" style="line-height:normal;font-variant-ligatures:normal;font-variant-position:normal;font-variant-caps:normal;font-variant-numeric:normal;font-variant-alternates:normal;font-variant-east-asian:normal;font-feature-settings:normal;font-variation-settings:normal;text-indent:0;text-align:start;text-decoration-line:none;text-decoration-style:solid;text-decoration-color:#000;text-transform:none;text-orientation:mixed;shape-padding:0;shape-margin:0;inline-size:0;isolation:auto;mix-blend-mode:normal"/><path fill="#5ad0ff" d="m 73.758808,69.794191 c -0.0632,0.0046 -0.127363,0.01662 -0.190688,0.03772 l -0.89245,0.29714 a 0.26460996,0.26460996 0 0 0 -0.179319,0.249598 v 1.058849 a 0.26460996,0.26460996 0 0 0 0.179319,0.252179 l 0.89245,0.296625 c 0.506592,0.168865 1.045414,-0.219967 1.045416,-0.753959 v -0.648539 c -2e-6,-0.467244 -0.412313,-0.821402 -0.854728,-0.789617 z" color="#000" font-family="sans-serif" font-weight="400" overflow="visible" paint-order="markers fill stroke" style="line-height:normal;font-variant-ligatures:normal;font-variant-position:normal;font-variant-caps:normal;font-variant-numeric:normal;font-variant-alternates:normal;font-variant-east-asian:normal;font-feature-settings:normal;font-variation-settings:normal;text-indent:0;text-align:start;text-decoration-line:none;text-decoration-style:solid;text-decoration-color:#000;text-transform:none;text-orientation:mixed;shape-padding:0;shape-margin:0;inline-size:0;isolation:auto;mix-blend-mode:normal"/><path fill="#34bbe5" d="m 272.9707,261.00195 v 7.9961 c 10e-6,1.64502 -1.36084,2.99804 -3.00586,2.99804 h -7.96679 V 272 c -10e-6,1.64502 1.35889,2.99805 3.0039,2.99805 h 7.99414 c 1.64502,0 3.00587,-1.35303 3.00586,-2.99805 v -8.00195 c 10e-6,-1.64502 -1.36084,-2.9961 -3.00586,-2.9961 z" color="#000" font-family="sans-serif" font-weight="400" overflow="visible" paint-order="markers fill stroke" transform="scale(.26458)" style="line-height:normal;font-variant-ligatures:normal;font-variant-position:normal;font-variant-caps:normal;font-variant-numeric:normal;font-variant-alternates:normal;font-variant-east-asian:normal;font-feature-settings:normal;font-variation-settings:normal;text-indent:0;text-align:start;text-decoration-line:none;text-decoration-style:solid;text-decoration-color:#000;text-transform:none;text-orientation:mixed;shape-padding:0;shape-margin:0;inline-size:0;isolation:auto;mix-blend-mode:normal"/><path fill="#34bbe5" d="m 278.98047,263.79688 v 2.27148 c -1e-5,2.01824 -2.03649,3.48784 -3.95117,2.84961 l -1.02735,-0.3418 V 270 a 1.0001006,1.0001006 0 0 0 0.67774,0.95312 l 3.37304,1.1211 c 1.91468,0.63823 3.95117,-0.83137 3.95118,-2.84961 v -2.45117 c -1e-5,-1.69214 -1.43275,-2.97655 -3.02344,-2.97656 z" color="#000" font-family="sans-serif" font-weight="400" overflow="visible" paint-order="markers fill stroke" transform="scale(.26458)" style="line-height:normal;font-variant-ligatures:normal;font-variant-position:normal;font-variant-caps:normal;font-variant-numeric:normal;font-variant-alternates:normal;font-variant-east-asian:normal;font-feature-settings:normal;font-variation-settings:normal;text-indent:0;text-align:start;text-decoration-line:none;text-decoration-style:solid;text-decoration-color:#000;text-transform:none;text-orientation:mixed;shape-padding:0;shape-margin:0;inline-size:0;isolation:auto;mix-blend-mode:normal"/><path fill="#3d688f" d="m 265.00195,261.00391 c -1.64502,0 -3.00391,1.35109 -3.0039,2.99609 v 8.00195 c -10e-6,1.645 1.35888,2.99805 3.0039,2.99805 h 0.9961 c 0.55381,0.003 1.00479,-0.44423 1.00586,-0.99805 0.002,-0.55611 -0.44976,-1.00716 -1.00586,-1.0039 h -0.9961 c -0.56412,0 -1.00391,-0.432 -1.0039,-0.9961 V 264 c -10e-6,-0.56413 0.43978,-0.99609 1.0039,-0.99609 h 7.99414 c 0.56413,0 1.00587,0.43196 1.00586,0.99609 v 8.00195 c 10e-6,0.5641 -0.44173,0.9961 -1.00586,0.9961 h -3.15039 c -0.55533,-0.002 -1.00607,0.44857 -1.0039,1.0039 0.001,0.55305 0.45085,1.00021 1.0039,0.99805 h 3.15039 c 1.64502,0 3.00587,-1.35305 3.00586,-2.99805 v -0.61523 l 2.05078,0.68164 c 1.91468,0.63821 3.95117,-0.82353 3.95118,-2.8418 v -2.45117 c -1e-5,-2.01827 -2.0365,-3.48786 -3.95118,-2.84961 l -2.05078,0.6836 V 264 c 10e-6,-1.645 -1.36084,-2.99609 -3.00586,-2.99609 z m 13.92969,4.76562 c 0.57613,-0.052 1.07031,0.38287 1.07031,1.00586 v 2.45117 c 0,0.71199 -0.64486,1.17046 -1.32031,0.94532 l -2.67969,-0.89454 v -2.56054 l 2.67969,-0.89258 c 0.0844,-0.0281 0.1677,-0.0473 0.25,-0.0547 z" color="#000" font-family="sans-serif" style="line-height:normal;font-variant-ligatures:normal;font-variant-position:normal;font-variant-caps:normal;font-variant-numeric:normal;font-variant-alternates:normal;font-variant-east-asian:normal;font-feature-settings:normal;font-variation-settings:normal;text-indent:0;text-align:start;text-decoration-line:none;text-decoration-style:solid;text-decoration-color:#000;text-transform:none;text-orientation:mixed;shape-padding:0;shape-margin:0;inline-size:0;isolation:auto;mix-blend-mode:normal" font-weight="400" overflow="visible" paint-order="markers fill stroke" transform="scale(.26458)"/></g></svg>